<mxfile host="Electron" agent="Mozilla/5.0 (Windows NT 10.0; Win64; x64) AppleWebKit/537.36 (KHTML, like Gecko) draw.io/28.0.6 Chrome/138.0.7204.100 Electron/37.2.3 Safari/537.36" version="28.0.6">
  <diagram name="Página-1" id="IMVVkjA-P-taotVaOo8Q">
    <mxGraphModel dx="1501" dy="885" grid="1" gridSize="10" guides="1" tooltips="1" connect="1" arrows="1" fold="1" page="1" pageScale="1" pageWidth="827" pageHeight="1169" math="0" shadow="0">
      <root>
        <mxCell id="0" />
        <mxCell id="1" parent="0" />
        <mxCell id="GT4gI6zNLx6lsi_KIUbi-1" value="AWS Cloud" style="points=[[0,0],[0.25,0],[0.5,0],[0.75,0],[1,0],[1,0.25],[1,0.5],[1,0.75],[1,1],[0.75,1],[0.5,1],[0.25,1],[0,1],[0,0.75],[0,0.5],[0,0.25]];outlineConnect=0;gradientColor=none;html=1;whiteSpace=wrap;fontSize=12;fontStyle=0;container=1;pointerEvents=0;collapsible=0;recursiveResize=0;shape=mxgraph.aws4.group;grIcon=mxgraph.aws4.group_aws_cloud_alt;strokeColor=#232F3E;fillColor=none;verticalAlign=top;align=left;spacingLeft=30;fontColor=#232F3E;dashed=0;" vertex="1" parent="1">
          <mxGeometry x="60" y="80" width="1340" height="850" as="geometry" />
        </mxCell>
        <mxCell id="GT4gI6zNLx6lsi_KIUbi-13" style="edgeStyle=orthogonalEdgeStyle;rounded=0;orthogonalLoop=1;jettySize=auto;html=1;startArrow=classic;startFill=1;" edge="1" parent="GT4gI6zNLx6lsi_KIUbi-1" source="GT4gI6zNLx6lsi_KIUbi-2" target="GT4gI6zNLx6lsi_KIUbi-12">
          <mxGeometry relative="1" as="geometry" />
        </mxCell>
        <mxCell id="GT4gI6zNLx6lsi_KIUbi-2" value="Api Gateway" style="sketch=0;points=[[0,0,0],[0.25,0,0],[0.5,0,0],[0.75,0,0],[1,0,0],[0,1,0],[0.25,1,0],[0.5,1,0],[0.75,1,0],[1,1,0],[0,0.25,0],[0,0.5,0],[0,0.75,0],[1,0.25,0],[1,0.5,0],[1,0.75,0]];outlineConnect=0;fontColor=#232F3E;fillColor=#8C4FFF;strokeColor=#ffffff;dashed=0;verticalLabelPosition=bottom;verticalAlign=top;align=center;html=1;fontSize=12;fontStyle=0;aspect=fixed;shape=mxgraph.aws4.resourceIcon;resIcon=mxgraph.aws4.api_gateway;" vertex="1" parent="GT4gI6zNLx6lsi_KIUbi-1">
          <mxGeometry x="410" y="311" width="78" height="78" as="geometry" />
        </mxCell>
        <mxCell id="GT4gI6zNLx6lsi_KIUbi-4" value="Generic group" style="fillColor=#ffe6cc;strokeColor=#d79b00;dashed=0;verticalAlign=top;fontStyle=0;whiteSpace=wrap;html=1;" vertex="1" parent="GT4gI6zNLx6lsi_KIUbi-1">
          <mxGeometry x="180" y="90" width="130" height="360" as="geometry" />
        </mxCell>
        <mxCell id="GT4gI6zNLx6lsi_KIUbi-7" style="edgeStyle=orthogonalEdgeStyle;rounded=0;orthogonalLoop=1;jettySize=auto;html=1;startArrow=classic;startFill=1;" edge="1" parent="GT4gI6zNLx6lsi_KIUbi-1" source="GT4gI6zNLx6lsi_KIUbi-5" target="GT4gI6zNLx6lsi_KIUbi-6">
          <mxGeometry relative="1" as="geometry" />
        </mxCell>
        <mxCell id="GT4gI6zNLx6lsi_KIUbi-11" style="edgeStyle=orthogonalEdgeStyle;rounded=0;orthogonalLoop=1;jettySize=auto;html=1;" edge="1" parent="GT4gI6zNLx6lsi_KIUbi-1" source="GT4gI6zNLx6lsi_KIUbi-5" target="GT4gI6zNLx6lsi_KIUbi-2">
          <mxGeometry relative="1" as="geometry" />
        </mxCell>
        <mxCell id="GT4gI6zNLx6lsi_KIUbi-5" value="WAF" style="sketch=0;points=[[0,0,0],[0.25,0,0],[0.5,0,0],[0.75,0,0],[1,0,0],[0,1,0],[0.25,1,0],[0.5,1,0],[0.75,1,0],[1,1,0],[0,0.25,0],[0,0.5,0],[0,0.75,0],[1,0.25,0],[1,0.5,0],[1,0.75,0]];outlineConnect=0;fontColor=#232F3E;fillColor=#DD344C;strokeColor=#ffffff;dashed=0;verticalLabelPosition=bottom;verticalAlign=top;align=center;html=1;fontSize=12;fontStyle=0;aspect=fixed;shape=mxgraph.aws4.resourceIcon;resIcon=mxgraph.aws4.waf;" vertex="1" parent="GT4gI6zNLx6lsi_KIUbi-1">
          <mxGeometry x="206" y="311" width="78" height="78" as="geometry" />
        </mxCell>
        <mxCell id="GT4gI6zNLx6lsi_KIUbi-6" value="WAF Rules" style="sketch=0;outlineConnect=0;fontColor=#232F3E;gradientColor=none;fillColor=#DD344C;strokeColor=none;dashed=0;verticalLabelPosition=top;verticalAlign=bottom;align=center;html=1;fontSize=12;fontStyle=0;aspect=fixed;pointerEvents=1;shape=mxgraph.aws4.waf_rule;labelPosition=center;" vertex="1" parent="GT4gI6zNLx6lsi_KIUbi-1">
          <mxGeometry x="206" y="150" width="78" height="78" as="geometry" />
        </mxCell>
        <mxCell id="GT4gI6zNLx6lsi_KIUbi-8" value="Client" style="sketch=0;outlineConnect=0;fontColor=#232F3E;gradientColor=none;strokeColor=#232F3E;fillColor=#ffffff;dashed=0;verticalLabelPosition=bottom;verticalAlign=top;align=center;html=1;fontSize=12;fontStyle=0;aspect=fixed;shape=mxgraph.aws4.resourceIcon;resIcon=mxgraph.aws4.client;" vertex="1" parent="GT4gI6zNLx6lsi_KIUbi-1">
          <mxGeometry x="20" y="320" width="60" height="60" as="geometry" />
        </mxCell>
        <mxCell id="GT4gI6zNLx6lsi_KIUbi-9" style="edgeStyle=orthogonalEdgeStyle;rounded=0;orthogonalLoop=1;jettySize=auto;html=1;entryX=0;entryY=0.5;entryDx=0;entryDy=0;entryPerimeter=0;" edge="1" parent="GT4gI6zNLx6lsi_KIUbi-1" source="GT4gI6zNLx6lsi_KIUbi-8" target="GT4gI6zNLx6lsi_KIUbi-5">
          <mxGeometry relative="1" as="geometry" />
        </mxCell>
        <mxCell id="GT4gI6zNLx6lsi_KIUbi-10" value="HTTPS&lt;div&gt;requests&lt;/div&gt;" style="edgeLabel;html=1;align=center;verticalAlign=middle;resizable=0;points=[];" vertex="1" connectable="0" parent="GT4gI6zNLx6lsi_KIUbi-9">
          <mxGeometry x="-0.0635" y="-2" relative="1" as="geometry">
            <mxPoint x="-19" y="-2" as="offset" />
          </mxGeometry>
        </mxCell>
        <mxCell id="GT4gI6zNLx6lsi_KIUbi-12" value="Authorizer" style="sketch=0;outlineConnect=0;fontColor=#232F3E;gradientColor=none;fillColor=#ED7100;strokeColor=none;dashed=0;verticalLabelPosition=top;verticalAlign=bottom;align=center;html=1;fontSize=12;fontStyle=0;aspect=fixed;pointerEvents=1;shape=mxgraph.aws4.lambda_function;labelPosition=center;" vertex="1" parent="GT4gI6zNLx6lsi_KIUbi-1">
          <mxGeometry x="425" y="210" width="48" height="48" as="geometry" />
        </mxCell>
        <mxCell id="GT4gI6zNLx6lsi_KIUbi-14" value="VPC" style="points=[[0,0],[0.25,0],[0.5,0],[0.75,0],[1,0],[1,0.25],[1,0.5],[1,0.75],[1,1],[0.75,1],[0.5,1],[0.25,1],[0,1],[0,0.75],[0,0.5],[0,0.25]];outlineConnect=0;gradientColor=none;html=1;whiteSpace=wrap;fontSize=12;fontStyle=0;container=1;pointerEvents=0;collapsible=0;recursiveResize=0;shape=mxgraph.aws4.group;grIcon=mxgraph.aws4.group_vpc2;strokeColor=#8C4FFF;fillColor=none;verticalAlign=top;align=left;spacingLeft=30;fontColor=#AAB7B8;dashed=0;" vertex="1" parent="GT4gI6zNLx6lsi_KIUbi-1">
          <mxGeometry x="610" y="80" width="370" height="680" as="geometry" />
        </mxCell>
        <mxCell id="GT4gI6zNLx6lsi_KIUbi-15" value="Private subnet" style="points=[[0,0],[0.25,0],[0.5,0],[0.75,0],[1,0],[1,0.25],[1,0.5],[1,0.75],[1,1],[0.75,1],[0.5,1],[0.25,1],[0,1],[0,0.75],[0,0.5],[0,0.25]];outlineConnect=0;gradientColor=none;html=1;whiteSpace=wrap;fontSize=12;fontStyle=0;container=1;pointerEvents=0;collapsible=0;recursiveResize=0;shape=mxgraph.aws4.group;grIcon=mxgraph.aws4.group_security_group;grStroke=0;strokeColor=#00A4A6;fillColor=#E6F6F7;verticalAlign=top;align=left;spacingLeft=30;fontColor=#147EBA;dashed=0;" vertex="1" parent="GT4gI6zNLx6lsi_KIUbi-14">
          <mxGeometry x="157" y="40" width="173" height="630" as="geometry" />
        </mxCell>
        <mxCell id="GT4gI6zNLx6lsi_KIUbi-17" value="Lançamentos" style="outlineConnect=0;dashed=0;verticalLabelPosition=bottom;verticalAlign=top;align=center;html=1;shape=mxgraph.aws3.lambda_function;fillColor=#F58534;gradientColor=none;" vertex="1" parent="GT4gI6zNLx6lsi_KIUbi-15">
          <mxGeometry x="52" y="40" width="69" height="72" as="geometry" />
        </mxCell>
        <mxCell id="GT4gI6zNLx6lsi_KIUbi-34" style="edgeStyle=orthogonalEdgeStyle;rounded=0;orthogonalLoop=1;jettySize=auto;html=1;" edge="1" parent="GT4gI6zNLx6lsi_KIUbi-15" source="GT4gI6zNLx6lsi_KIUbi-18" target="GT4gI6zNLx6lsi_KIUbi-33">
          <mxGeometry relative="1" as="geometry" />
        </mxCell>
        <mxCell id="GT4gI6zNLx6lsi_KIUbi-18" value="Consolidado" style="outlineConnect=0;dashed=0;verticalLabelPosition=bottom;verticalAlign=top;align=center;html=1;shape=mxgraph.aws3.lambda_function;fillColor=#F58534;gradientColor=none;" vertex="1" parent="GT4gI6zNLx6lsi_KIUbi-15">
          <mxGeometry x="52" y="370" width="69" height="72" as="geometry" />
        </mxCell>
        <mxCell id="GT4gI6zNLx6lsi_KIUbi-33" value="Redis" style="image;sketch=0;aspect=fixed;html=1;points=[];align=center;fontSize=12;image=img/lib/mscae/Cache_Redis_Product.svg;" vertex="1" parent="GT4gI6zNLx6lsi_KIUbi-15">
          <mxGeometry x="47" y="530" width="80" height="67.2" as="geometry" />
        </mxCell>
        <mxCell id="GT4gI6zNLx6lsi_KIUbi-22" style="edgeStyle=orthogonalEdgeStyle;rounded=0;orthogonalLoop=1;jettySize=auto;html=1;entryX=0;entryY=0.5;entryDx=0;entryDy=0;entryPerimeter=0;exitX=1;exitY=0.5;exitDx=0;exitDy=0;exitPerimeter=0;" edge="1" parent="GT4gI6zNLx6lsi_KIUbi-14" source="GT4gI6zNLx6lsi_KIUbi-2" target="GT4gI6zNLx6lsi_KIUbi-18">
          <mxGeometry relative="1" as="geometry">
            <mxPoint x="-122" y="290" as="sourcePoint" />
            <mxPoint x="210" y="440" as="targetPoint" />
          </mxGeometry>
        </mxCell>
        <mxCell id="GT4gI6zNLx6lsi_KIUbi-28" value="/consolidado" style="edgeLabel;html=1;align=center;verticalAlign=middle;resizable=0;points=[];" vertex="1" connectable="0" parent="GT4gI6zNLx6lsi_KIUbi-22">
          <mxGeometry x="0.4513" y="-1" relative="1" as="geometry">
            <mxPoint x="40" y="-1" as="offset" />
          </mxGeometry>
        </mxCell>
        <mxCell id="GT4gI6zNLx6lsi_KIUbi-30" style="edgeStyle=orthogonalEdgeStyle;rounded=0;orthogonalLoop=1;jettySize=auto;html=1;" edge="1" parent="GT4gI6zNLx6lsi_KIUbi-1" source="GT4gI6zNLx6lsi_KIUbi-19" target="GT4gI6zNLx6lsi_KIUbi-29">
          <mxGeometry relative="1" as="geometry" />
        </mxCell>
        <mxCell id="GT4gI6zNLx6lsi_KIUbi-31" style="edgeStyle=orthogonalEdgeStyle;rounded=0;orthogonalLoop=1;jettySize=auto;html=1;entryX=0.5;entryY=0;entryDx=0;entryDy=0;entryPerimeter=0;" edge="1" parent="GT4gI6zNLx6lsi_KIUbi-1" source="GT4gI6zNLx6lsi_KIUbi-19" target="GT4gI6zNLx6lsi_KIUbi-18">
          <mxGeometry relative="1" as="geometry">
            <Array as="points">
              <mxPoint x="1089" y="420" />
              <mxPoint x="854" y="420" />
            </Array>
          </mxGeometry>
        </mxCell>
        <mxCell id="GT4gI6zNLx6lsi_KIUbi-19" value="sqs-consolidado" style="sketch=0;points=[[0,0,0],[0.25,0,0],[0.5,0,0],[0.75,0,0],[1,0,0],[0,1,0],[0.25,1,0],[0.5,1,0],[0.75,1,0],[1,1,0],[0,0.25,0],[0,0.5,0],[0,0.75,0],[1,0.25,0],[1,0.5,0],[1,0.75,0]];outlineConnect=0;fontColor=#232F3E;fillColor=#E7157B;strokeColor=#ffffff;dashed=0;verticalLabelPosition=top;verticalAlign=bottom;align=center;html=1;fontSize=12;fontStyle=0;aspect=fixed;shape=mxgraph.aws4.resourceIcon;resIcon=mxgraph.aws4.sqs;labelPosition=center;" vertex="1" parent="GT4gI6zNLx6lsi_KIUbi-1">
          <mxGeometry x="1050" y="311" width="78" height="78" as="geometry" />
        </mxCell>
        <mxCell id="GT4gI6zNLx6lsi_KIUbi-20" style="edgeStyle=orthogonalEdgeStyle;rounded=0;orthogonalLoop=1;jettySize=auto;html=1;entryX=0;entryY=0.5;entryDx=0;entryDy=0;entryPerimeter=0;" edge="1" parent="GT4gI6zNLx6lsi_KIUbi-1" source="GT4gI6zNLx6lsi_KIUbi-2" target="GT4gI6zNLx6lsi_KIUbi-17">
          <mxGeometry relative="1" as="geometry">
            <Array as="points">
              <mxPoint x="650" y="350" />
              <mxPoint x="650" y="196" />
            </Array>
          </mxGeometry>
        </mxCell>
        <mxCell id="GT4gI6zNLx6lsi_KIUbi-21" value="/lancamentos" style="edgeLabel;html=1;align=center;verticalAlign=middle;resizable=0;points=[];" vertex="1" connectable="0" parent="GT4gI6zNLx6lsi_KIUbi-20">
          <mxGeometry x="0.5598" y="-1" relative="1" as="geometry">
            <mxPoint as="offset" />
          </mxGeometry>
        </mxCell>
        <mxCell id="GT4gI6zNLx6lsi_KIUbi-23" value="Lançamentos" style="sketch=0;points=[[0,0,0],[0.25,0,0],[0.5,0,0],[0.75,0,0],[1,0,0],[0,1,0],[0.25,1,0],[0.5,1,0],[0.75,1,0],[1,1,0],[0,0.25,0],[0,0.5,0],[0,0.75,0],[1,0.25,0],[1,0.5,0],[1,0.75,0]];outlineConnect=0;fontColor=#232F3E;fillColor=#C925D1;strokeColor=#ffffff;dashed=0;verticalLabelPosition=bottom;verticalAlign=top;align=center;html=1;fontSize=12;fontStyle=0;aspect=fixed;shape=mxgraph.aws4.resourceIcon;resIcon=mxgraph.aws4.dynamodb;" vertex="1" parent="GT4gI6zNLx6lsi_KIUbi-1">
          <mxGeometry x="1050" y="157" width="78" height="78" as="geometry" />
        </mxCell>
        <mxCell id="GT4gI6zNLx6lsi_KIUbi-24" style="edgeStyle=orthogonalEdgeStyle;rounded=0;orthogonalLoop=1;jettySize=auto;html=1;entryX=0;entryY=0.5;entryDx=0;entryDy=0;entryPerimeter=0;" edge="1" parent="GT4gI6zNLx6lsi_KIUbi-1" source="GT4gI6zNLx6lsi_KIUbi-17" target="GT4gI6zNLx6lsi_KIUbi-23">
          <mxGeometry relative="1" as="geometry" />
        </mxCell>
        <mxCell id="GT4gI6zNLx6lsi_KIUbi-25" style="edgeStyle=orthogonalEdgeStyle;rounded=0;orthogonalLoop=1;jettySize=auto;html=1;entryX=0;entryY=0.5;entryDx=0;entryDy=0;entryPerimeter=0;exitX=0.855;exitY=0.855;exitDx=0;exitDy=0;exitPerimeter=0;" edge="1" parent="GT4gI6zNLx6lsi_KIUbi-1" source="GT4gI6zNLx6lsi_KIUbi-17" target="GT4gI6zNLx6lsi_KIUbi-19">
          <mxGeometry relative="1" as="geometry">
            <Array as="points">
              <mxPoint x="1010" y="222" />
              <mxPoint x="1010" y="350" />
            </Array>
          </mxGeometry>
        </mxCell>
        <mxCell id="GT4gI6zNLx6lsi_KIUbi-26" value="Consolidado" style="sketch=0;points=[[0,0,0],[0.25,0,0],[0.5,0,0],[0.75,0,0],[1,0,0],[0,1,0],[0.25,1,0],[0.5,1,0],[0.75,1,0],[1,1,0],[0,0.25,0],[0,0.5,0],[0,0.75,0],[1,0.25,0],[1,0.5,0],[1,0.75,0]];outlineConnect=0;fontColor=#232F3E;fillColor=#C925D1;strokeColor=#ffffff;dashed=0;verticalLabelPosition=bottom;verticalAlign=top;align=center;html=1;fontSize=12;fontStyle=0;aspect=fixed;shape=mxgraph.aws4.resourceIcon;resIcon=mxgraph.aws4.dynamodb;" vertex="1" parent="GT4gI6zNLx6lsi_KIUbi-1">
          <mxGeometry x="1050" y="487" width="78" height="78" as="geometry" />
        </mxCell>
        <mxCell id="GT4gI6zNLx6lsi_KIUbi-29" value="sqs-consolidado-dlq" style="sketch=0;points=[[0,0,0],[0.25,0,0],[0.5,0,0],[0.75,0,0],[1,0,0],[0,1,0],[0.25,1,0],[0.5,1,0],[0.75,1,0],[1,1,0],[0,0.25,0],[0,0.5,0],[0,0.75,0],[1,0.25,0],[1,0.5,0],[1,0.75,0]];outlineConnect=0;fontColor=#232F3E;fillColor=#E7157B;strokeColor=#ffffff;dashed=0;verticalLabelPosition=top;verticalAlign=bottom;align=center;html=1;fontSize=12;fontStyle=0;aspect=fixed;shape=mxgraph.aws4.resourceIcon;resIcon=mxgraph.aws4.sqs;labelPosition=center;" vertex="1" parent="GT4gI6zNLx6lsi_KIUbi-1">
          <mxGeometry x="1210" y="311" width="78" height="78" as="geometry" />
        </mxCell>
        <mxCell id="GT4gI6zNLx6lsi_KIUbi-32" style="edgeStyle=orthogonalEdgeStyle;rounded=0;orthogonalLoop=1;jettySize=auto;html=1;entryX=0;entryY=0.5;entryDx=0;entryDy=0;entryPerimeter=0;" edge="1" parent="GT4gI6zNLx6lsi_KIUbi-1" source="GT4gI6zNLx6lsi_KIUbi-18" target="GT4gI6zNLx6lsi_KIUbi-26">
          <mxGeometry relative="1" as="geometry" />
        </mxCell>
      </root>
    </mxGraphModel>
  </diagram>
</mxfile>
